<svg xmlns="http://www.w3.org/2000/svg" viewBox="0 0 800 400">
  <rect width="800" height="400" fill="#2d4a3e"/>
  <g transform="translate(400, 170)" fill="#ffffff">
    <path d="M45,0 Q40,-15 25,-25 Q15,-30 0,-30 Q-15,-30 -25,-25 Q-40,-15 -45,0 Q-40,15 -25,25 Q-15,30 0,30 Q15,30 25,25 Q40,15 45,0 Z"/>
    <circle cx="12" cy="-8" r="4" fill="#2d4a3e"/>
    <path d="M50,0 L60,-5 L60,5 Z"/>
    <path d="M-5,18 Q-2,22 2,18" fill="none" stroke="#2d4a3e" stroke-width="2"/>
    <path d="M5,18 Q8,22 12,18" fill="none" stroke="#2d4a3e" stroke-width="2"/>
    <path d="M-15,18 Q-12,22 -8,18" fill="none" stroke="#2d4a3e" stroke-width="2"/>
  </g>
  <text x="400" y="270" text-anchor="middle" fill="#ffffff" font-family="sans-serif" font-size="24" font-weight="600">Fishing Charter</text>
</svg>
