<svg xmlns="http://www.w3.org/2000/svg" viewBox="0 0 800 400">
  <rect width="800" height="400" fill="#2d4a3e"/>
  <g transform="translate(400, 170)" fill="#ffffff">
    <path d="M-30,10 Q-35,-10 -25,-25 Q-18,-35 -5,-35 Q5,-35 10,-28 L15,-25 Q20,-30 28,-30 Q35,-28 35,-20 L32,-10 Q30,-5 28,0 L25,10 L20,30 L10,30 L12,10 L-5,10 L-8,30 L-18,30 L-15,10 Z"/>
    <ellipse cx="-22" cy="-22" rx="4" ry="6" fill="#ffffff" transform="rotate(-20, -22, -22)"/>
    <circle cx="-15" cy="-25" r="2" fill="#2d4a3e"/>
    <path d="M30,-18 L38,-22 L36,-14 Z"/>
  </g>
  <text x="400" y="270" text-anchor="middle" fill="#ffffff" font-family="sans-serif" font-size="24" font-weight="600">Gun Dogs</text>
</svg>
